# xmcd
#
# Track frame offsets:
#	150
#	15457
#	29904
#	45541
#	59185
#	72557
#	88876
#	107683
#	122843
#	138612
#
# Disc length: 2057 seconds
#
# Revision: 1
# Processed by: cddbd v1.5.1PL2 Copyright (c) Steve Scherf et al.
# Submitted via: EasyCDDAExtractor 6.5.9.5
#
DISCID=9b08070a
DTITLE=Ronnie Milsap - Only One Love In My Life
DYEAR=1978
DGENRE=Country
TTITLE0=Let's Take The Long Way Around The World
TTITLE1=Back On My Mind Again
TTITLE2=Only One Love In My Life
TTITLE3=I'm Not Trying to Forget
TTITLE4=No Relief In Sight
TTITLE5=Once I Get Over You
TTITLE6=Santa Barbara
TTITLE7=Too Soon To Know
TTITLE8=Yesterday's Lovers Never Make Good Friends
TTITLE9=I've Got The Music In Me
EXTD=
EXTT0=
EXTT1=
EXTT2=
EXTT3=
EXTT4=
EXTT5=
EXTT6=
EXTT7=
EXTT8=
EXTT9=
PLAYORDER=
